<mxfile host="app.diagrams.net" modified="2023-03-26T17:35:52.422Z" agent="Mozilla/5.0 (X11; Linux x86_64; rv:109.0) Gecko/20100101 Firefox/111.0" etag="H3RR2miPNRlM62Y0hEmt" version="21.1.1" type="device">
  <diagram name="Page-1" id="KeEYdbvN7WRGqJRjSGQ_">
    <mxGraphModel dx="474" dy="798" grid="1" gridSize="10" guides="1" tooltips="1" connect="1" arrows="1" fold="1" page="1" pageScale="1" pageWidth="850" pageHeight="1100" math="0" shadow="0">
      <root>
        <mxCell id="0" />
        <mxCell id="1" parent="0" />
        <mxCell id="pW8muvMdbhssO3j1i1ft-1" value="" style="endArrow=none;html=1;rounded=0;exitX=0.5;exitY=0;exitDx=0;exitDy=0;entryX=0.145;entryY=1.008;entryDx=0;entryDy=0;entryPerimeter=0;strokeWidth=2;fillColor=#f8cecc;strokeColor=#b85450;" edge="1" parent="1" source="pW8muvMdbhssO3j1i1ft-3" target="pW8muvMdbhssO3j1i1ft-2">
          <mxGeometry width="50" height="50" relative="1" as="geometry">
            <mxPoint x="220" y="370" as="sourcePoint" />
            <mxPoint x="220" y="260" as="targetPoint" />
          </mxGeometry>
        </mxCell>
        <mxCell id="pW8muvMdbhssO3j1i1ft-2" value="&lt;font face=&quot;Courier New&quot;&gt;&lt;b&gt;a&lt;/b&gt;&lt;/font&gt;" style="rounded=0;whiteSpace=wrap;html=1;" vertex="1" parent="1">
          <mxGeometry x="180" y="220" width="140" height="40" as="geometry" />
        </mxCell>
        <mxCell id="pW8muvMdbhssO3j1i1ft-3" value="" style="rounded=0;whiteSpace=wrap;html=1;" vertex="1" parent="1">
          <mxGeometry x="120" y="320" width="160" height="40" as="geometry" />
        </mxCell>
        <mxCell id="pW8muvMdbhssO3j1i1ft-4" value="" style="endArrow=none;html=1;rounded=0;exitX=0.5;exitY=0;exitDx=0;exitDy=0;entryX=0.911;entryY=1.033;entryDx=0;entryDy=0;entryPerimeter=0;dashed=1;" edge="1" parent="1" source="pW8muvMdbhssO3j1i1ft-5" target="pW8muvMdbhssO3j1i1ft-2">
          <mxGeometry width="50" height="50" relative="1" as="geometry">
            <mxPoint x="310" y="440" as="sourcePoint" />
            <mxPoint x="300" y="260" as="targetPoint" />
          </mxGeometry>
        </mxCell>
        <mxCell id="pW8muvMdbhssO3j1i1ft-5" value="&lt;b&gt;&lt;font face=&quot;Courier New&quot;&gt;B&lt;/font&gt;&lt;/b&gt;" style="ellipse;whiteSpace=wrap;html=1;aspect=fixed;" vertex="1" parent="1">
          <mxGeometry x="290" y="400" width="40" height="40" as="geometry" />
        </mxCell>
        <mxCell id="pW8muvMdbhssO3j1i1ft-6" value="&lt;b&gt;&lt;font face=&quot;Courier New&quot;&gt;B&lt;/font&gt;&lt;/b&gt;" style="ellipse;whiteSpace=wrap;html=1;aspect=fixed;" vertex="1" parent="1">
          <mxGeometry x="240" y="400" width="40" height="40" as="geometry" />
        </mxCell>
        <mxCell id="pW8muvMdbhssO3j1i1ft-7" value="" style="endArrow=none;html=1;rounded=0;entryX=0.842;entryY=0.997;entryDx=0;entryDy=0;exitX=0.5;exitY=0;exitDx=0;exitDy=0;entryPerimeter=0;jumpStyle=none;dashed=1;" edge="1" parent="1" source="pW8muvMdbhssO3j1i1ft-6" target="pW8muvMdbhssO3j1i1ft-11">
          <mxGeometry width="50" height="50" relative="1" as="geometry">
            <mxPoint x="230" y="440" as="sourcePoint" />
            <mxPoint x="280" y="390" as="targetPoint" />
          </mxGeometry>
        </mxCell>
        <mxCell id="pW8muvMdbhssO3j1i1ft-8" value="&lt;b&gt;&lt;font face=&quot;Courier New&quot;&gt;A&lt;/font&gt;&lt;/b&gt;" style="ellipse;whiteSpace=wrap;html=1;aspect=fixed;" vertex="1" parent="1">
          <mxGeometry x="190" y="400" width="40" height="40" as="geometry" />
        </mxCell>
        <mxCell id="pW8muvMdbhssO3j1i1ft-9" value="" style="endArrow=none;html=1;rounded=0;exitX=0.5;exitY=0;exitDx=0;exitDy=0;entryX=0.138;entryY=1.011;entryDx=0;entryDy=0;entryPerimeter=0;strokeWidth=2;fillColor=#f8cecc;strokeColor=#b85450;" edge="1" parent="1" source="pW8muvMdbhssO3j1i1ft-8" target="pW8muvMdbhssO3j1i1ft-11">
          <mxGeometry width="50" height="50" relative="1" as="geometry">
            <mxPoint x="230" y="440" as="sourcePoint" />
            <mxPoint x="190" y="360" as="targetPoint" />
            <Array as="points">
              <mxPoint x="210" y="350" />
            </Array>
          </mxGeometry>
        </mxCell>
        <mxCell id="pW8muvMdbhssO3j1i1ft-11" value="&lt;b&gt;&lt;font face=&quot;Courier New&quot;&gt;b&lt;/font&gt;&lt;/b&gt;&lt;font face=&quot;Courier New&quot;&gt;&quot;&lt;/font&gt;" style="rounded=0;whiteSpace=wrap;html=1;" vertex="1" parent="1">
          <mxGeometry x="200" y="330" width="70" height="20" as="geometry" />
        </mxCell>
        <mxCell id="pW8muvMdbhssO3j1i1ft-12" value="&lt;b&gt;&lt;font face=&quot;Courier New&quot;&gt;b&lt;/font&gt;&lt;/b&gt;&lt;font face=&quot;Courier New&quot;&gt;&#39;&lt;/font&gt;" style="rounded=0;whiteSpace=wrap;html=1;" vertex="1" parent="1">
          <mxGeometry x="130" y="330" width="60" height="20" as="geometry" />
        </mxCell>
        <mxCell id="pW8muvMdbhssO3j1i1ft-14" value="&lt;b&gt;&lt;font face=&quot;Courier New&quot;&gt;B&lt;/font&gt;&lt;/b&gt;" style="ellipse;whiteSpace=wrap;html=1;aspect=fixed;" vertex="1" parent="1">
          <mxGeometry x="140" y="400" width="40" height="40" as="geometry" />
        </mxCell>
        <mxCell id="pW8muvMdbhssO3j1i1ft-15" value="" style="endArrow=none;html=1;rounded=0;entryX=0.5;entryY=1;entryDx=0;entryDy=0;exitX=0.5;exitY=0;exitDx=0;exitDy=0;fillColor=#f8cecc;strokeColor=#b85450;strokeWidth=2;" edge="1" parent="1" source="pW8muvMdbhssO3j1i1ft-14" target="pW8muvMdbhssO3j1i1ft-12">
          <mxGeometry width="50" height="50" relative="1" as="geometry">
            <mxPoint x="140" y="440" as="sourcePoint" />
            <mxPoint x="190" y="390" as="targetPoint" />
          </mxGeometry>
        </mxCell>
        <mxCell id="pW8muvMdbhssO3j1i1ft-18" value="" style="endArrow=none;html=1;rounded=0;fillColor=#f8cecc;strokeColor=#b85450;" edge="1" parent="1">
          <mxGeometry width="50" height="50" relative="1" as="geometry">
            <mxPoint x="145" y="189.76" as="sourcePoint" />
            <mxPoint x="125" y="189.76" as="targetPoint" />
          </mxGeometry>
        </mxCell>
        <mxCell id="pW8muvMdbhssO3j1i1ft-19" value="&lt;font style=&quot;font-size: 9px;&quot; face=&quot;Courier New&quot;&gt;connections explored by could_form()&lt;/font&gt;" style="rounded=0;whiteSpace=wrap;html=1;fillColor=none;strokeColor=none;" vertex="1" parent="1">
          <mxGeometry x="145" y="180" width="210" height="20" as="geometry" />
        </mxCell>
        <mxCell id="pW8muvMdbhssO3j1i1ft-21" value="&lt;div align=&quot;left&quot;&gt;&lt;font style=&quot;font-size: 9px;&quot;&gt;In this case &lt;b&gt;a&lt;/b&gt; could be formed from both &lt;b&gt;B&lt;/b&gt; or &lt;b&gt;A&lt;/b&gt;.&lt;/font&gt;&lt;/div&gt;&lt;div align=&quot;left&quot;&gt;&lt;font style=&quot;font-size: 9px;&quot;&gt;Or even &lt;b&gt;b&lt;/b&gt; in the case that the lexer could return it.&lt;br&gt;&lt;/font&gt;&lt;/div&gt;" style="rounded=0;whiteSpace=wrap;html=1;fillColor=none;strokeColor=none;fontFamily=Courier New;align=left;" vertex="1" parent="1">
          <mxGeometry x="90" y="460" width="280" height="30" as="geometry" />
        </mxCell>
      </root>
    </mxGraphModel>
  </diagram>
</mxfile>
